<?xml version="1.0" encoding="UTF-8"?>
<svg id="Layer_2" data-name="Layer 2" xmlns="http://www.w3.org/2000/svg" viewBox="0 0 193.75 59.68">
  <defs>
    <style>
      .cls-1 {
        fill: #360a56;
        stroke: #000;
        stroke-miterlimit: 10;
        stroke-width: .25px;
      }

      .cls-2 {
        fill: #3b0e5b;
      }

      .cls-2, .cls-3 {
        stroke-width: 0px;
      }

      .cls-3 {
        fill: #fff;
      }
    </style>
  </defs>
  <g id="Layer_1-2" data-name="Layer 1">
    <g>
      <g>
        <rect class="cls-1" x="30.07" y="7.14" width="73.12" height="52.42" rx="4.77" ry="4.77"/>
        <g>
          <path class="cls-2" d="m0,42.48V12.98h6.96v3.19c2.18-2.3,5.37-3.78,8.85-3.78,6.84,0,11.56,4.84,11.56,12.33v17.76h-6.96v-16.29c0-4.96-2.6-7.26-6.31-7.26-4.01,0-7.14,2.95-7.14,7.61v15.93H0Z"/>
          <path class="cls-3" d="m49.08,12.39c3.72,0,7.14,1.95,9.09,4.25v-3.66h6.96v28.91c0,8.79-5.96,14.16-15.75,14.16-4.66,0-9.56-1.59-13.04-4.78l4.84-4.84c2.3,1.95,5.43,3.01,8.32,3.01,5.49,0,8.67-2.66,8.67-7.08v-3.66c-1.95,2.42-5.37,4.37-9.09,4.37-8.44,0-14.63-6.9-14.63-15.34s6.2-15.34,14.63-15.34Zm-7.67,15.34c0,4.6,3.78,8.38,8.38,8.38s8.38-3.78,8.38-8.38-3.78-8.38-8.38-8.38-8.38,3.78-8.38,8.38Z"/>
          <path class="cls-3" d="m100.89,27.73c0,8.44-6.85,15.34-15.34,15.34s-15.34-6.9-15.34-15.34,6.9-15.34,15.34-15.34,15.34,6.84,15.34,15.34Zm-15.34,8.38c4.6,0,8.38-3.78,8.38-8.38s-3.78-8.38-8.38-8.38-8.38,3.78-8.38,8.38,3.78,8.38,8.38,8.38Z"/>
          <path class="cls-2" d="m105.96,0h6.96v16.64c1.95-2.3,5.37-4.25,9.09-4.25,8.5,0,14.63,6.9,14.63,15.34s-6.14,15.34-14.63,15.34c-3.72,0-7.14-1.95-9.09-4.37v3.78h-6.96V0Zm6.96,27.73c0,4.6,3.78,8.38,8.38,8.38s8.38-3.78,8.38-8.38-3.78-8.38-8.38-8.38-8.38,3.78-8.38,8.38Z"/>
          <path class="cls-2" d="m155.04,12.39c3.72,0,7.14,1.95,9.09,4.25v-3.66h6.96v29.5h-6.96v-3.78c-1.95,2.42-5.37,4.37-9.09,4.37-8.44,0-14.63-6.9-14.63-15.34s6.2-15.34,14.63-15.34Zm-7.67,15.34c0,4.6,3.78,8.38,8.38,8.38s8.38-3.78,8.38-8.38-3.78-8.38-8.38-8.38-8.38,3.78-8.38,8.38Z"/>
          <path class="cls-2" d="m177.94,42.48V12.98h6.96v3.36c2.01-2.36,5.07-3.95,8.85-3.95v6.61c-.24-.06-.53-.06-.77-.06-4.43,0-8.08,3.13-8.08,7.61v15.93h-6.96Z"/>
        </g>
      </g>
      <circle class="cls-3" cx="86.65" cy="50.07" r="3.82"/>
    </g>
  </g>
</svg>